<?xml version="1.0" encoding="UTF-8"?>
<svg width="256" height="256" version="1.1" viewBox="0 0 163.84 163.84" xml:space="preserve" xmlns="http://www.w3.org/2000/svg">
<g transform="matrix(.31498 0 0 .315 1.2798 1.2751)"><path d="m187.77 341.35c-61.44 0-110.93 49.493-110.93 110.93 0 5.12 3.413 8.533 8.533 8.533h204.8c5.12 0 8.533-3.413 8.533-8.533 0-61.44-49.493-110.93-110.93-110.93zm-93.867 102.4c5.12-47.787 44.373-85.333 93.867-85.333s89.6 37.547 93.867 85.333z"/><path d="m366.97 443.75h-17.067c-2.261-45.213-23.449-85.633-55.69-113.65-0.196-0.239-0.404-0.473-0.63-0.699-0.59-0.59-1.234-1.071-1.909-1.458-28.262-23.571-64.57-37.796-103.9-37.796-87.04 0-157.87 68.267-162.13 153.6h-17.066c-5.12 0-8.533 3.413-8.533 8.533v51.2c0 5.12 3.413 8.533 8.533 8.533h358.4c5.12 0 8.533-3.413 8.533-8.533v-51.2c0-5.119-3.413-8.532-8.533-8.532zm-8.533 51.2h-25.6v-8.533c0-5.12-3.413-8.533-8.533-8.533s-8.533 3.413-8.533 8.533v8.533h-51.2v-8.533c0-5.12-3.413-8.533-8.533-8.533s-8.533 3.413-8.533 8.533v8.533h-51.2v-8.533c0-5.12-3.413-8.533-8.533-8.533s-8.533 3.413-8.533 8.533v8.533h-51.2v-8.533c0-5.12-3.413-8.533-8.533-8.533s-8.533 3.413-8.533 8.533v8.533h-51.2v-8.533c0-5.12-3.413-8.533-8.533-8.533s-8.533 3.413-8.533 8.533v8.533h-25.6v-34.133h17.067c5.12 0 8.533-3.413 8.533-8.533 0-41.411 17.286-78.727 45.046-105.14l8.714 8.714c1.707 1.707 3.413 2.56 5.973 2.56s4.267-0.853 5.973-2.56c3.413-3.413 3.413-8.533 0-11.947l-7.717-7.717c22.115-16.603 49.146-27.021 78.544-28.721v8.278c0 5.12 3.413 8.533 8.533 8.533s8.533-3.413 8.533-8.533v-8.278c29.398 1.7 56.429 12.117 78.544 28.721l-7.717 7.717c-3.413 3.413-3.413 8.533 0 11.947 1.707 1.707 3.413 2.56 5.973 2.56s4.267-0.853 5.973-2.56l8.714-8.714c27.76 26.413 45.046 63.729 45.046 105.14 0 5.12 3.413 8.533 8.533 8.533h17.067v34.133z"/><path d="m503.5 0.017h-102.4c-5.12 0-8.533 3.413-8.533 8.533v494.93c0 5.12 3.413 8.533 8.533 8.533h102.4c5.12 0 8.533-3.413 8.533-8.533v-494.93c1e-3 -5.12-3.413-8.534-8.533-8.534zm-8.533 494.93h-85.333v-17.067h42.667c5.12 0 8.533-3.413 8.533-8.533s-3.413-8.533-8.533-8.533h-42.667v-25.6h25.6c5.12 0 8.533-3.413 8.533-8.533s-3.413-8.533-8.533-8.533h-25.6v-25.6h42.667c5.12 0 8.533-3.413 8.533-8.533s-3.413-8.533-8.533-8.533h-42.667v-25.6h25.6c5.12 0 8.533-3.413 8.533-8.533s-3.413-8.533-8.533-8.533h-25.6v-25.6h42.667c5.12 0 8.533-3.413 8.533-8.533s-3.413-8.533-8.533-8.533h-42.667v-25.6h25.6c5.12 0 8.533-3.413 8.533-8.533s-3.413-8.533-8.533-8.533h-25.6v-25.6h42.667c5.12 0 8.533-3.413 8.533-8.533s-3.413-8.533-8.533-8.533h-42.667v-25.6h25.6c5.12 0 8.533-3.413 8.533-8.533s-3.413-8.533-8.533-8.533h-25.6v-25.6h42.667c5.12 0 8.533-3.413 8.533-8.533s-3.413-8.533-8.533-8.533h-42.667v-25.6h25.6c5.12 0 8.533-3.413 8.533-8.533s-3.413-8.533-8.533-8.533h-25.6v-59.74h85.333z"/><path d="m8.568 341.35c1.707 0 3.413 0 4.267-0.853l147.63-87.04c1.52-0.912 2.598-2.043 3.291-3.31l133.61-135.26c1.35-0.391 2.8-1.131 3.899-2.23l29.013-29.867c14.507-14.507 14.507-40.107 0-54.613l-17.067-17.067c-14.507-14.507-40.107-14.507-54.613 0l-29.867 29.013-1e-3 1e-3 -136.77 137.61c-1.266 0.657-2.313 1.652-3.012 2.897-0.982 0.888-1.628 2.05-1.947 3.285l-86.112 144.64c-1.707 3.413-0.853 7.68 1.707 10.24 1.706 1.706 3.413 2.56 5.973 2.56zm90.901-145.24c11.925 4.981 22.318 12.7 30.648 22.349 0.04 0.047 0.08 0.094 0.121 0.141 0.74 0.861 1.456 1.743 2.163 2.633 0.229 0.289 0.458 0.578 0.684 0.871 0.514 0.665 1.013 1.342 1.509 2.022 0.322 0.443 0.646 0.883 0.961 1.333 0.388 0.553 0.761 1.117 1.137 1.679 0.367 0.55 0.738 1.096 1.094 1.656 0.322 0.506 0.628 1.023 0.94 1.536 0.368 0.604 0.742 1.203 1.098 1.818 0.643 1.114 1.268 2.241 1.865 3.385l3.256 6.919-56.023 33.104-22.534-23.753zm-66.154 111.96 24.747-41.813 17.067 17.067zm125.44-76.8-1.707-3.413c-9.993-19.986-25.973-35.769-45.91-45.398l121-121.86c11.947 21.333 28.16 37.547 48.64 48.64zm111.79-208.21c8.533-7.68 23.04-7.68 30.72 0l17.067 17.067c7.68 8.533 7.68 23.04 0 30.72l-25.157 25.157c-21.303-10.364-37.495-26.392-48.061-47.512z"/><path d="m460.84 68.284c9.387 0 17.067-7.68 17.067-17.067s-7.68-17.067-17.067-17.067-17.067 7.68-17.067 17.067 7.68 17.067 17.067 17.067z"/></g>
</svg>
