<?xml version="1.0" encoding="UTF-8"?>
<!-- Uploaded to: SVG Repo, www.svgrepo.com, Generator: SVG Repo Mixer Tools -->
<svg width="128" height="128" fill="#000000" version="1.1" viewBox="0 0 73.56 73.56" xml:space="preserve" xmlns="http://www.w3.org/2000/svg"><g fill="#fff" stroke-width=".17405">
<path d="m71.624 50.84h-6.4221c-1.069 0-1.9355 1.0255-1.9355 2.2904v18.14c0 1.265 0.86656 2.2906 1.9355 2.2906h6.4221c1.069 0 1.9357-1.0255 1.9357-2.2906v-18.14c0-1.265-0.86656-2.2904-1.9357-2.2904z"/><path d="m55.808 42.13h-6.4221c-1.069 0-1.9357 1.0255-1.9357 2.2904v26.848c0 1.265 0.86656 2.2906 1.9357 2.2906h6.4221c1.069 0 1.9355-1.0255 1.9355-2.2906v-26.848c1.6e-4 -1.2652-0.8664-2.2906-1.9355-2.2906z"/><path d="m24.174 50.84h-6.4221c-1.069 0-1.9355 1.0255-1.9355 2.2904v18.14c0 1.265 0.86656 2.2906 1.9355 2.2906h6.4221c1.069 0 1.9357-1.0255 1.9357-2.2906v-18.14c0-1.265-0.86672-2.2904-1.9357-2.2904z"/><path d="m8.3578 42.13h-6.4221c-1.0691 0-1.9357 1.0255-1.9357 2.2906v26.848c0 1.265 0.86656 2.2906 1.9357 2.2906h6.4221c1.069 0 1.9355-1.0255 1.9355-2.2906v-26.848c0-1.2652-0.86656-2.2906-1.9355-2.2906z"/><path d="m39.99 30.55h-6.4221c-1.069 0-1.9357 1.0255-1.9357 2.2906v38.43c0 1.265 0.86656 2.2906 1.9357 2.2906h6.4221c1.069 0 1.9357-1.0255 1.9357-2.2906v-38.43c0-1.2652-0.86672-2.2906-1.9357-2.2906z"/><path d="m69.899 39.572c1.3024 0 2.4-1.2559 2.4-2.8401v-9.179c0-1.5685-1.0746-2.8401-2.4-2.8401s-2.4 1.2716-2.4 2.8401v2.2946l-24.376-29.011c-0.50368-0.59926-1.2058-0.90258-1.9182-0.8259-0.71136 0.076304-1.3571 0.52353-1.7618 1.2203l-18.365 31.631-16.128-12.159c-1.1179-0.84275-2.6016-0.45366-3.3136 0.86945-0.71216 1.3229-0.38336 3.0785 0.73472 3.9212l18.083 13.632c0.3992 0.30086 0.84576 0.44514 1.2874 0.44514 0.76528 0 1.516-0.43264 1.9802-1.232l18.038-31.069 22.368 26.621h-1.9856c-1.3254 0-2.4 1.2716-2.4 2.8401 0 1.5685 1.0746 2.8401 2.4 2.8401h7.7509z"/>
</g></svg>
