<?xml version="1.0" encoding="UTF-8"?>
<svg width="128" height="128" version="1.1" viewBox="0 0 128 128" xmlns="http://www.w3.org/2000/svg">
 <path d="m4.2413 64.002a59.762 59.762 0 1 0 119.52 0 59.762 59.762 0 1 0-119.52 0z" fill="#555" stroke-width="2.241"/>
 <path d="m64.002 4.2411a59.761 59.761 0 1 0 59.761 59.761 59.761 59.761 0 0 0-59.761-59.761zm0 110.56a54.532 54.532 0 1 1 54.532-54.532 54.532 54.532 0 0 1-54.532 54.532z" fill="#222" stroke-width="2.241"/>
 <path d="m4.2413 64.002a59.762 59.762 0 1 0 119.52 0 59.762 59.762 0 1 0-119.52 0z" fill="none" stroke="#000" stroke-linecap="round" stroke-linejoin="round" stroke-width="4.4821"/>
 <g fill="#222">
  <path d="m107.33 84.171c0 2.4801-3.3466 4.4821-7.4702 4.4821-4.1236 0-7.4702-2.002-7.4702-4.4821s3.3466-4.4821 7.4702-4.4821c4.1236 0 7.4702 2.002 7.4702 4.4821z" stroke-width="2.241"/>
  <path d="m20.676 84.171c0 2.4801 3.3466 4.4821 7.4702 4.4821s7.4702-2.002 7.4702-4.4821-3.3466-4.4821-7.4702-4.4821c-4.1235 0-7.4702 2.002-7.4702 4.4821z" stroke-width="2.241"/>
  <path d="m41.187 104.01c0 3.5229 3.3466 6.3668 7.4702 6.3668s7.4702-2.8438 7.4702-6.3668-3.3466-6.3668-7.4702-6.3668c-4.1235 0-7.4702 2.8438-7.4702 6.3668z" stroke-width="2.671"/>
  <path d="m102.06 59.715c0 3.5229 2.9948 6.3668 6.6849 6.3668s6.6849-2.8438 6.6849-6.3668-2.9948-6.3668-6.6849-6.3668c-3.69 0-6.6849 2.8438-6.6849 6.3668z" stroke-width="2.5267"/>
  <path d="m36.233 19.161c0 4.8265 4.1029 8.7226 9.1584 8.7226s9.1584-3.8961 9.1584-8.7226-4.1029-8.7226-9.1584-8.7226c-5.0554 0-9.1584 3.8961-9.1584 8.7226z" stroke-width="3.4616"/>
  <path d="m78.35 20.251c0 3.8705 3.2903 6.995 7.3445 6.995s7.3445-3.1244 7.3445-6.995c0-3.8705-3.2903-6.995-7.3445-6.995-4.0541 0-7.3445 3.1245-7.3445 6.995z" stroke-width="2.776"/>
  <path d="m13.133 66.764c0 3.5229 2.9948 6.3668 6.6849 6.3668s6.6849-2.8438 6.6849-6.3668-2.9948-6.3668-6.6849-6.3668c-3.69 0-6.6849 2.8438-6.6849 6.3668z" stroke-width="2.5267"/>
  <path d="m64.003 68.291c3.5373 0.18659 6.8291 0.77777 8.3449-2.7616 0.37414 1.022 0.5554 2.1178 0.53265 3.22-0.28928 13.084-18.045 12.612-17.755-0.47122 0.03904-1.0982 0.26806-2.1778 0.6747-3.1808 1.3845 3.6471 4.6262 3.2307 8.2029 3.1935z" stroke-width="2.8007"/>
 </g>
 <path d="m38.408 55.497a6.883 9.9103 0 1 0 13.766 0 6.883 9.9103 0 1 0-13.766 0" stroke-width="2.7527"/>
 <path d="m75.829 55.497a6.883 9.9103 0 1 0 13.766 0 6.883 9.9103 0 1 0-13.766 0" stroke-width="2.7527"/>
 <g fill="none" stroke="#000" stroke-linecap="round" stroke-linejoin="round" stroke-miterlimit="10" stroke-width="4.5886">
  <path d="m81.615 88.976c-4.8976 3.6355-11.044 5.8543-17.612 5.8543-6.6576 0-12.679-2.1295-17.61-5.8559"/>
  <path d="m54.307 35.342s-10.954-5.9658-21.909 3.7908"/>
  <path d="m73.696 35.342s10.954-5.9658 21.909 3.7908"/>
 </g>
</svg>
