<?xml version="1.0" encoding="UTF-8"?>
<svg width="256" height="256" version="1.1" viewBox="0 0 256 256" xml:space="preserve" xmlns="http://www.w3.org/2000/svg">


<circle cx="128" cy="128" r="128" fill="#19a500"/><g transform="matrix(1.0033 0 0 1.0033 -15.121 33.993)" fill="#fff"><g stroke-linecap="round"><path d="m122.6 105.83c-3.2146 0-6.3984-1.3966-8.5817-4.0857-3.8413-4.7348-3.1135-11.687 1.6214-15.528l62.997-51.086c4.7348-3.8328 11.687-3.1135 15.528 1.6214 3.8385 4.7377 3.1135 11.687-1.6214 15.528l-62.997 51.083c-2.0457 1.6607-4.5044 2.4672-6.9463 2.4672z"/><path d="m204.17 86.027c-3.7738 0-7.4409-1.9389-9.5006-5.4064l-18.568-31.284c-3.1135-5.2406-1.3853-12.016 3.8553-15.126 5.2435-3.1107 12.018-1.3825 15.126 3.8581l13.106 22.078 30.328-16.767c5.339-2.9505 12.052-1.0144 15.003 4.319 2.9477 5.3362 1.0172 12.052-4.319 15.003l-39.7 21.946c-1.6888 0.93573-3.5209 1.3797-5.3306 1.3797z"/><path d="m110.49 62.718c-3.3804 0-6.7187-1.5483-8.8824-4.4763-3.6249-4.9006-2.5908-11.813 2.3098-15.438l33.262-24.61c3.0685-2.2705 7.0952-2.796 10.641-1.3825l41.849 16.635c5.665 2.2508 8.4328 8.6688 6.1792 14.337-2.2508 5.6678-8.6717 8.43-14.334 6.182l-36.142-14.365-28.325 20.957c-1.9754 1.4556-4.2768 2.1609-6.5585 2.1609z"/></g><circle cx="217.31" cy="21.057" r="19.057"/><g stroke-linecap="round"><path d="m58.523 174.19c-3.476 0-6.8986-1.6354-9.0454-4.7011-3.5013-4.9906-2.293-11.875 2.6976-15.376l43.909-30.803 16.624-33.442c2.7145-5.4598 9.3432-7.6797 14.797-4.9737 5.4598 2.7145 7.6854 9.3404 4.9737 14.797l-17.872 35.954c-0.82052 1.6495-2.0401 3.0657-3.5462 4.1223l-46.208 32.419c-1.9305 1.3544-4.1419 2.0035-6.3309 2.0035z"/><path d="m164.58 123.35c-1.4162 0-2.8578-0.27538-4.2459-0.85424l-41.99-17.52c-5.6256-2.3464-8.2839-8.8122-5.9347-14.438s8.815-8.2783 14.438-5.9347l41.987 17.518c5.6284 2.3464 8.2839 8.8122 5.9375 14.438-1.7675 4.2347-5.8701 6.7918-10.192 6.7918z"/><path d="m142.54 180.83c-1.3123 0-2.6498-0.23323-3.948-0.73341-5.6931-2.1834-8.5396-8.5677-6.3562-14.261l22.036-57.481c2.1834-5.6931 8.5649-8.5424 14.261-6.359s8.5368 8.5677 6.359 14.261l-22.039 57.481c-1.686 4.3948-5.8729 7.0924-10.313 7.0924z"/></g></g>
</svg>
