<?xml version="1.0" encoding="UTF-8"?>
<svg id="Sun-With-Face--Streamline-Openmoji" width="128" height="128" version="1.1" viewBox="0 0 128 128" xmlns="http://www.w3.org/2000/svg">
 <desc>Sun With Face Streamline Emoji: https://streamlinehq.com</desc>
 <path d="m64 14.547-8.5518-10.668-5.2182 12.634-11.215-7.8158-1.4239 13.596-12.965-4.3325 2.4539 13.448-13.66-0.5238 6.1329 12.216-13.252 3.3535 9.3431 9.9798-11.764 6.9611 11.764 6.9611-9.3427 9.9802 13.253 3.3544-6.1321 12.217 13.661-0.52435-2.4531 13.449 12.965-4.3338 1.4243 13.596 11.214-7.8167 5.2177 12.634 8.5514-10.668 8.5518 10.668 5.2182-12.634 11.215 7.8158 1.4239-13.596 12.965 4.3325-2.4539-13.448 13.66 0.5238-6.1329-12.216 13.252-3.3535-9.3431-9.9798 11.764-6.9611-11.764-6.9611 9.3427-9.9802-13.253-3.3544 6.1325-12.217-13.661 0.52435 2.4531-13.449-12.965 4.3338-1.4243-13.596-11.214 7.8167-5.2177-12.634z" fill="#ffb900" stroke-width="1.8786"/>
 <path d="m64 14.547-8.5518-10.668-5.2182 12.634-11.215-7.8158-1.4239 13.596-12.965-4.3325 2.4539 13.448-13.66-0.5238 6.1329 12.216-13.252 3.3535 9.3431 9.9798-11.764 6.9611 11.764 6.9611-9.3427 9.9802 13.253 3.3544-6.1321 12.217 13.661-0.52435-2.4531 13.449 12.965-4.3338 1.4243 13.596 11.214-7.8167 5.2177 12.634 8.5514-10.668 8.5518 10.668 5.2182-12.634 11.215 7.8158 1.4239-13.596 12.965 4.3325-2.4539-13.448 13.66 0.5238-6.1329-12.216 13.252-3.3535-9.3431-9.9798 11.764-6.9611-11.764-6.9611 9.3427-9.9802-13.253-3.3544 6.1325-12.217-13.661 0.52435 2.4531-13.449-12.965 4.3338-1.4243-13.596-11.214 7.8167-5.2177-12.634z" fill="none" stroke="#000" stroke-linecap="round" stroke-linejoin="round" stroke-miterlimit="10" stroke-width="3.7576"/>
 <ellipse cx="64" cy="64" rx="46.102" ry="46.102" fill="#fce100" stroke-opacity="0"/>
 <path d="m42.178 56.478c0 13.229 13 13.229 13 0 0-13.229-13-13.229-13 0" stroke-width="2.6766"/>
 <path d="m72.822 56.478a6.5 9.9218 0 1 0 13 0 6.5 9.9218 0 1 0-13 0" stroke-width="2.6766"/>
 <path d="m64.567 68.735c3.2104 0.18443 6.1979 0.76888 7.5735-2.73 0.33954 1.0103 0.50406 2.0935 0.48342 3.1832-0.26256 12.934-16.376 12.468-16.114-0.4658 0.03551-1.0856 0.24328-2.153 0.61233-3.1444 1.2565 3.6054 4.1985 3.1937 7.4446 3.157z" fill="#ffb900" stroke-width="2.6528"/>
 <g fill="none" stroke="#000" stroke-linecap="round" stroke-linejoin="round" stroke-miterlimit="10" stroke-width="3.7576">
  <path d="m78.423 82.9c-4.0107 2.9771-9.0443 4.7942-14.423 4.7942-5.4519 0-10.383-1.7439-14.421-4.7954"/>
  <path d="m56.061 38.979s-8.9707-4.8855-17.942 3.1043"/>
  <path d="m71.938 38.979s8.9707-4.8855 17.942 3.1043"/>
 </g>
</svg>
