<?xml version="1.0" encoding="UTF-8"?>
<!-- Uploaded to: SVG Repo, www.svgrepo.com, Generator: SVG Repo Mixer Tools -->
<svg class="iconify iconify--gis" width="256" height="256" aria-hidden="true" preserveAspectRatio="xMidYMid" role="img" version="1.1" viewBox="0 0 32 32" xmlns="http://www.w3.org/2000/svg">
 <path d="m7.5517 0.25c-2.3616 0-4.3017 1.94-4.3017 4.3017 0 2.0895 1.5198 3.8472 3.5058 4.2249v2.3658h1.7138v-2.3918c1.8458-0.40995 3.2515-2.0233 3.3601-3.9634 0.01234-0.23891 0.0021-0.34619 0-0.47267-0.12682-2.2506-1.9976-4.0642-4.2777-4.0642zm0 2.3993c1.065 0 1.9027 0.83737 1.9027 1.9023 0 1.0646-0.83772 1.903-1.9023 1.903-1.065 0-1.9027-0.8384-1.9027-1.903 0-1.065 0.83772-1.9023 1.9023-1.9023zm1.175 8.42v1.7138a13.375 13.375 0 0 1 8.5191 3.0664l-1.9846 2.0052 5.7605 0.51518-0.37807-5.9949-2.1903 2.1697c-2.7274-2.3479-6.0967-3.4756-9.7266-3.4753zm-1.9709 1.7868v3.4276h1.7138v-3.4276zm19.448 0.17961c-1.4715 0-2.6293 1.1572-2.6293 2.629 0 0.27421 0.0401 0.53814 0.11482 0.78493l-1.7097 1.3258 1.0499 1.3539 1.6723-1.2956a2.6365 2.6365 0 0 0 1.502 0.4617c1.4718 0 2.6297-1.1592 2.6297-2.6311 0-1.4715-1.1579-2.629-2.6297-2.629zm-19.448 4.9619v3.4276h1.7138v-3.4276zm13.87 0.82812-2.7085 2.1008 1.0495 1.3543 2.7089-2.1008zm-4.0628 3.1507-2.7089 2.1005 1.0499 1.3546 2.7085-2.1011zm-9.8072 1.1627v3.4276h1.7138v-3.4276zm5.744 1.988-2.7092 2.1005 1.0502 1.3543 2.7089-2.1001zm-4.0635 3.1507-0.00343 0.0028h-1.6771v3.4694l1.3817-1.0718 1.3491-1.0454-1.017-1.3118v-0.0401h-0.031534z" stroke-width=".34276"/>
</svg>
