<?xml version="1.0" encoding="UTF-8"?>
<svg width="128" height="128" version="1.1" xmlns="http://www.w3.org/2000/svg">
 <g transform="matrix(.26996 0 0 .27667 -67.369 2.0244)">
  <path d="m293.4-3.51c-2.74 0-5.41 0.28-8 0.81v6.18c-3.47 0.83-6.72 2.18-9.68 4l-4.38-4.375c-2.24 1.48-4.29 3.22-6.19 5.125-1.89 1.89-3.64 3.94-5.12 6.18l4.37 4.375c-1.81 2.967-3.16 6.212-4 9.687h-6.18c-0.53 2.585-0.82 5.261-0.82 8s0.29 5.415 0.82 8h6.18c0.84 3.475 2.19 6.72 4 9.688l-4.37 4.375c1.48 2.242 3.23 4.292 5.12 6.187 1.9 1.895 3.95 3.639 6.19 5.125l4.38-4.375c2.96 1.816 6.21 3.161 9.68 4v6.188c2.59 0.525 5.26 0.812 8 0.812s5.42-0.287 8-0.812v-6.188c3.48-0.839 6.72-2.184 9.69-4l4.38 4.375c2.24-1.486 4.29-3.23 6.18-5.125 1.9-1.895 3.64-3.945 5.13-6.187l-4.38-4.375c1.82-2.968 3.16-6.213 4-9.688h6.19c0.53-2.585 0.81-5.261 0.81-8s-0.28-5.415-0.81-8h-6.19c-0.84-3.475-2.18-6.72-4-9.687l4.38-4.375c-1.49-2.243-3.23-4.293-5.13-6.18-1.89-1.89-3.94-3.63-6.18-5.125l-4.38 4.375c-2.97-1.81-6.21-3.16-9.69-4v-6.18c-2.58-0.52-5.26-0.81-8-0.81zm0 20c11.04 0 20 8.96 20 20s-8.96 20-20 20-20-8.96-20-20 8.96-20 20-20z" fill="#949096" stroke="#2c2c2c" stroke-dashoffset="162" stroke-linecap="round" stroke-linejoin="round" stroke-width="4"/>
 </g>
</svg>
