<?xml version="1.0" encoding="UTF-8"?>
<svg width="128" height="128" version="1.1" viewBox="0 0 128 128" xmlns="http://www.w3.org/2000/svg">
 <path d="m17.703 126h93.281l-9.0405-15.214 24.056-19.952c-7.0565-9.5841-15.576-17.726-20.899-19.937 1.1253-2.8198 1.3202-3.3141 0.37951-4.8778 9.9987-2.7495 16.556-6.768 16.542-12.077-0.0148-5.7887-8.6141-11.35-21.429-13.285-3.0684-12.552-6.1203-22.434-10.005-28.92-0.70642-1.1788-1.4402-2.2465-2.2072-3.1959-11.564-14.34-15.616-0.63119-23.815-0.64717-9.5037-0.01865-10.713-12.598-23.106-0.75665-1.3327 1.2735-2.5792 2.8212-3.742 4.6242-4.2147 6.5287-7.3611 16.422-9.6868 28.895-13.662 2.4971-22.097 8.0112-21.817 13.642 0.25351 5.1013 6.9074 9.0117 16.908 11.712-0.65732 1.9662-0.50251 2.3036 0.38828 4.7237-7.4691 3.044-15.274 12.295-21.512 20.396l24.274 19.655zm46.125-24.643c2.1781 0 3.9445 1.7083 3.9445 3.8142 0 2.1055-1.7663 3.8138-3.9445 3.8138s-3.9442-1.7083-3.9442-3.8138c0-2.106 1.7661-3.8142 3.9442-3.8142zm-10.895-17.648c0-0.70506 0.12099-1.4232 0.35872-2.1491 0.49951-1.5412 1.5023-3.0009 2.7348-4.0821 1.4371-1.2626 3.2433-2.1762 5.1323-2.6027 4.484-1.0105 10.113 0.08526 12.776 4.0114l0.03257 0.05304c1.5113 2.2479 1.8715 5.3414 0.54109 7.7462-0.87752 1.5886-1.9166 2.4974-3.2425 3.681l-2.1701 1.8996-0.60397 0.55029c-0.7921 0.75834-1.0932 1.1953-1.3933 2.3426l-0.1994 0.85353c-0.17034 0.84627-0.52531 1.499-1.0626 1.9519l-0.05186 0.03996c-0.55512 0.4459-1.2676 0.67018-2.1323 0.67018-0.92637 0-1.7225-0.29888-2.3673-0.89495-0.33793-0.31317-0.58919-0.69876-0.75377-1.1524-0.15331-0.42556-0.22971-0.90367-0.22971-1.4324 0-2.151 0.6671-4.0242 2.1857-5.6158 1.1035-1.158 2.3918-2.2113 3.6123-3.2577 0.90282-0.79686 1.9246-1.6833 1.9246-2.9566 0-1.9871-1.7661-3.0518-3.6403-3.0518-1.9063 0-2.7821 0.48441-3.6744 2.0931-0.28332 0.51372-0.54259 1.1076-0.77381 1.7807-0.28182 0.88986-0.70267 1.5729-1.2608 2.0442-2.1699 1.8303-5.7416 0.15065-5.7416-2.5223zm44.221-16.706 0.13477 0.85862 0.77456 4.9371c7.5239-1.3329 2.4494 16.82-3.725 15.868-1.0649 3.2267-1.7884 9.6824-2.7252 12.094-8.7519 22.525-46.139 21.156-55.074-1.491-0.88353-2.2387-1.7084-8.4874-2.7313-11.344-6.7028 1.6189-10.835-16.796-3.4617-15.219l0.84495-4.8986 0.14379-0.83488 0.0764-0.44057c20.798 4.3667 45.798 3.8973 65.686 0.1102zm-65.138-23.63 1.8031-5.9677c11.688 9.4845 52.073 7.9984 60.877 0l1.5193 5.9677c-10.266 10.5-53.224 9.0733-64.199 0z"/>
</svg>
