<?xml version="1.0" encoding="UTF-8"?>
<svg width="128" height="128" version="1.1" viewBox="0 0 33.867 33.867" xmlns="http://www.w3.org/2000/svg">
 <g stroke-width=".96498">
  <path d="m12.805 26.55c0.01225-0.29743 0.07275-0.35793 0.15425-0.15425 0.07375 0.18431 0.06468 0.40452-0.02016 0.48936-0.08484 0.08484-0.14518-0.06596-0.13409-0.3351zm7.3753-2.5957-1.3956-1.4681 1.4681 1.3956c0.80744 0.76754 1.4681 1.4282 1.4681 1.4681 0 0.18951-0.24414-0.03163-1.5406-1.3956zm1.2527 0c-0.31758-0.40494-0.30855-0.41398 0.09639-0.0964 0.24574 0.19272 0.4468 0.39379 0.4468 0.4468 0 0.21013-0.20966 0.07488-0.54321-0.35041zm-3.8298-2.8085c-0.31758-0.40494-0.30855-0.41398 0.0964-0.0964 0.24574 0.19273 0.4468 0.39379 0.4468 0.4468 0 0.21013-0.20966 0.07488-0.54321-0.35041zm-2.5293-2.8085-1.3956-1.4681 1.4681 1.3956c0.80744 0.76754 1.4681 1.4282 1.4681 1.4681 0 0.18951-0.24414-0.03163-1.5406-1.3956zm-3.7954-1.6712c-0.32296-0.53777-0.31752-0.54322 0.12213-0.12213 0.25308 0.2424 0.40519 0.49568 0.33801 0.56285-0.06717 0.06717-0.27423-0.13116-0.46014-0.44073zm3.3969 0.01161-0.48638-0.57446 0.57446 0.48638c0.53986 0.45707 0.69069 0.66256 0.48638 0.66256-0.04845 0-0.30696-0.25851-0.57446-0.57446zm-2.9444-0.89361c-0.31758-0.40494-0.30855-0.41398 0.09639-0.0964 0.24574 0.19273 0.4468 0.39379 0.4468 0.4468 0 0.21013-0.20966 0.07488-0.54321-0.35041zm13.964-2.5421c-0.13855-0.36387-0.10923-0.39321 0.14292-0.14292 0.17449 0.1732 0.25294 0.37921 0.17432 0.45782-0.07861 0.07861-0.22138-0.06309-0.31726-0.31489zm-16.612-3.3939c-0.08679-0.14042-0.036119-0.25531 0.11259-0.25531 0.14871 0 0.27039 0.11489 0.27039 0.25531s-0.050671 0.25531-0.11259 0.25531c-0.061923 0-0.1836-0.11489-0.27039-0.25531z" fill="#ececec"/>
  <path d="m24.62 26.93c-0.54163-0.27344-1.219-0.67707-9.8101-9.1178l-0.22214-0.77283 8.6098 8.6532c0.74231 0.44299 1.6217 0.82176 1.9542 0.84169 0.3325 0.01994 0.55673 0.11372 0.49827 0.20841-0.05846 0.09469 0.09618 0.21298 0.34365 0.26286 0.40477 0.08159 0.40783 0.10731 0.03046 0.25614-0.23071 0.09099-0.86261-0.05829-1.4042-0.33172zm6.7191-2.1231c-0.14366-0.37437 0.02189-0.66178 0.38119-0.66178 0.28513 0 0.27254 0.69888-0.0158 0.87708-0.12571 0.07769-0.29013-0.01918-0.36538-0.21529zm-2.555-0.06604c-0.31198-0.31198-0.17551-0.59598 0.27659-0.57558 0.26955 0.01216 0.31956 0.07146 0.12606 0.14947-0.17641 0.07112-0.2558 0.23439-0.17642 0.36282 0.16764 0.27124 0.02235 0.31189-0.22624 0.0633zm-0.93617-1.3617c0-0.14042 0.11489-0.25531 0.25531-0.25531 0.14042 0 0.25532 0.11489 0.25532 0.25531 0 0.14042-0.11489 0.25532-0.25532 0.25532-0.14042 0-0.25531-0.11489-0.25531-0.25532zm2.6703-0.52762c-0.27479-0.44462 0.54177-0.28699 0.89196 0.13496 0.20138 0.24265 0.30468 0.38915 0.13538 0.38915-0.14933 0-0.93477-0.37433-1.0273-0.52411zm-19.55-1.6426c-0.12507-0.86696-0.09593-1.6091 0.05941-1.5131 0.09972 0.06162 0.23949-0.03228 0.31061-0.20869 0.07112-0.17641 0.13662 0.02394 0.14556 0.44521 0.01522 0.71769-0.43529 1.8332-0.51558 1.2766zm0.80401-3.3829c-5e-3 -0.45638 0.09906-0.82979 0.2312-0.82979 0.43741 0 0.48552 0.38103 0.12938 1.0245l-0.35153 0.63509zm-1.0303-1.696c0-0.05519 0.17234-0.16648 0.38298-0.2473 0.21064-0.08083 0.38298-0.03567 0.38298 0.10034 0 0.13601-0.17234 0.2473-0.38298 0.2473-0.21065 0-0.38298-0.04515-0.38298-0.10034zm14.894-2.3139c0-0.20446 0.09762-0.31142 0.21693-0.23768 0.11931 0.07373 0.15083 0.24102 0.07004 0.37175-0.20646 0.33406-0.28697 0.29644-0.28697-0.13407zm-1.8724-1.1124c-0.63191-0.3669-2.0106-1.0433-3.0638-1.5032-1.0532-0.45988-1.8-0.83931-1.6596-0.84317 0.14042-0.0039 0.08298-0.12769-0.12766-0.27515-0.58592-0.41021 0.68972-0.01672 1.8598 0.57368 0.5314 0.26814 1.0949 0.40798 1.2523 0.31077 0.15739-0.09721 0.21924-0.06874 0.13764 0.06329-0.0816 0.13203 0.58985 0.63807 1.4921 1.1246 0.90227 0.48648 1.6407 0.97067 1.6409 1.076 5.25e-4 0.29498-0.28632 0.19633-1.5315-0.5267zm-8.1108-0.30309c0.03759-0.49148 0.18322-0.87095 0.32364-0.84327 0.42181 0.08317 0.42324 0.69283 0.0029 1.2312-0.37562 0.48106-0.39153 0.46216-0.32653-0.38791zm-7.0681-0.93499c-0.21959-0.87493 0.59754-1.5177 1.0332-0.81278 0.11287 0.18263 0.070038 0.22546-0.11259 0.11259-0.19278-0.11915-0.29476 0.03866-0.29476 0.45612 0 0.89352-0.4216 1.0579-0.62587 0.24408zm-7.6611-1.6005c-0.16978-0.27471 0.32995-0.65551 0.55927-0.42618 0.084272 0.084272 0.0124 0.15322-0.15971 0.15322s-0.24193 0.11489-0.15514 0.25531c0.08679 0.14042 0.10035 0.25531 0.030136 0.25531-0.070212 0-0.19376-0.10696-0.27456-0.23767zm12.967-0.89746c0-0.27888 0.1145-0.30791 0.46808-0.11867 0.25745 0.13778 1.1506 0.68968 1.1506 0.75495 0 0.065271 2.015 4.7183-0.58678 0.11867-0.12675-0.22408-1.0319-0.5519-1.0319-0.75495zm10.783 0.08652c0.11901-0.19256-0.0085-0.22454-0.39988-0.10031-0.41734 0.13246-0.52215 0.097521-0.38298-0.12766 0.13917-0.22519 0.03436-0.26012-0.38298-0.12766-0.41734 0.13246-0.52215 0.097521-0.38298-0.12766 0.13917-0.22518 0.03436-0.26012-0.38298-0.12766-0.41734 0.13246-0.52215 0.097521-0.38298-0.12766 0.13887-0.2247 0.02469-0.26401-0.41484-0.14282-0.47769 0.13171-0.51855 0.11162-0.19248-0.094607 0.30188-0.19093 0.88509-0.10289 2.154 0.32517 1.2491 0.42135 1.6127 0.63588 1.2885 0.76026-0.62354 0.23928-0.7231 0.21836-0.52054-0.1094zm-3.719-1.2493c0.21064-0.13612 0.49787-0.2475 0.6383-0.2475 0.14042 0 0.08298 0.11138-0.12766 0.2475-0.21064 0.13612-0.49787 0.2475-0.6383 0.2475-0.14042 0-0.08298-0.11138 0.12766-0.2475z" fill="#cacaca"/>
  <path d="m27.351 27.824c-1.689-0.45398-2.0512-0.74574-0.65197-0.52518 0.5617 0.08855 1.2606 0.16225 1.5531 0.1638 0.30135 0.0016 0.53192 0.16881 0.53192 0.38579 0 0.21064-0.0096 0.37542-0.02128 0.36617-0.0117-0.0093-0.64704-0.18501-1.4119-0.39058zm3.5608-1.2209c0-0.05302 0.20106-0.25408 0.4468-0.4468 0.40494-0.31758 0.41398-0.30855 0.0964 0.0964-0.33354 0.4253-0.54321 0.56055-0.54321 0.35041zm0.25531-1.1529c0-0.1254 0.18859-0.30037 0.41909-0.38882 0.35041-0.13447 0.36621-0.09711 0.0964 0.228-0.36769 0.44304-0.51548 0.48915-0.51548 0.16082zm-2.1702-0.79327c-0.08679-0.14042-0.0429-0.25532 0.09752-0.25532 0.14042 0 0.32633 0.11489 0.41311 0.25532 0.08679 0.14042 0.0429 0.25531-0.09752 0.25531-0.14042 0-0.32633-0.11489-0.41311-0.25531zm-17.98-4.8856c-0.03541-0.28482 0.72404-1.891 0.76838-1.625 0.18032 1.0813 0.13647 1.4219-0.16794 1.3051-0.18277-0.07014-0.3881 0.0096-0.4563 0.17729-0.06819 0.16765-0.13307 0.23183-0.14415 0.14262zm1.1451-1.8276c0.09588-0.2518 0.23864-0.3935 0.31726-0.31489 0.07861 0.07861 1.62e-4 0.28463-0.17432 0.45782-0.25216 0.25028-0.28148 0.22095-0.14292-0.14292zm-4.3568-2.3773c-0.84254-0.18877-2.507-0.42265-3.6989-0.51975-1.227-0.099962-2.3128-0.32237-2.5032-0.51275-0.27807-0.27807-0.05788-0.31504 1.2733-0.21373 0.88524 0.06737 2.5286 0.2908 3.6521 0.49652s2.3553 0.33711 2.7376 0.29194c0.38226-0.04515 0.63398 0.01665 0.5594 0.13733-0.074583 0.12068 0.072229 0.22118 0.32626 0.22334 0.25403 0.0021 0.63421 0.11529 0.84485 0.25141 0.55704 0.36-1.2958 0.27041-3.1915-0.15432zm7.5319-2.3288c0-0.19552 0.10783-0.28885 0.23962-0.20739 0.1318 0.08145 0.35808-0.05538 0.50287-0.30408 0.14479-0.24869 0.26674-0.31534 0.271-0.1481 0.0042 0.16724-0.109 0.37625-0.25172 0.46444-0.14271 0.0882-0.20521 0.24817-0.13889 0.35549 0.06632 0.10732-0.0467 0.19512-0.25116 0.19512-0.20446 0-0.37175-0.15998-0.37175-0.35549zm14.17-2.6577c-1.9034-0.44436-4.5176-1.2777-4.3944-1.401 0.0674-0.067404 1.0439 0.11271 2.1701 0.40024 1.1261 0.28754 2.3171 0.51953 2.6466 0.51553 0.96305-0.01167 2.2585 0.30296 2.2585 0.54853 0 0.28272-1.3333 0.2512-2.6808-0.06337zm-11.808-0.50657c-0.45638-0.13178-0.82979-0.34423-0.82979-0.47211 0-0.12788 0.51702-0.056355 1.1489 0.15896 1.6995 0.57909 1.45 0.82398-0.31915 0.31316zm-16.915-0.58472c0-0.048606 0.17234-0.23141 0.38298-0.40623 0.22075-0.1832 0.38298-0.20802 0.38298-0.058574 0 0.1426-0.17234 0.32539-0.38298 0.40623-0.21064 0.080827-0.38298 0.10719-0.38298 0.058574zm12.255-0.66154c0-0.14042 0.16556-0.25531 0.36791-0.25531s0.43891 0.11489 0.5257 0.25531-0.07877 0.25531-0.36791 0.25531c-0.28914 0-0.5257-0.11489-0.5257-0.25531zm6.5106-1.3105c-1.4042-0.40806-3.5394-0.81299-4.7446-0.89982-1.6019-0.11541-2.1915-0.25145-2.1915-0.50565 0-0.41567 0.29779-0.42526 2.468-0.079553 1.6674 0.26561 7.4042 1.9439 7.4042 2.1661 0 0.16714-0.08554 0.1473-2.9361-0.68106z" fill="#aeaeae"/>
  <path d="m28.774 28.05c-0.27223-0.27223 0.12405-0.58494 0.74125-0.58494 0.39724 0 0.57047 0.11662 0.48891 0.32914-0.13014 0.33912-0.97183 0.51414-1.2302 0.2558zm1.1172-0.9406c0-0.05519 0.17831-0.16876 0.39624-0.25239 0.22722-0.08719 0.3297-0.04439 0.24025 0.10034-0.14994 0.24261-0.63648 0.35884-0.63648 0.15205zm1.1306-1.2597c-0.08363-0.21792-0.02205-0.60426 0.13683-0.85853 0.24738-0.39591 0.2635-0.37093 0.1122 0.17398-0.15789 0.56862-0.13203 0.59923 0.24313 0.28788 0.23089-0.19163 0.4198-0.23352 0.4198-0.09309 0 0.14042-0.17098 0.39722-0.37995 0.57065-0.30691 0.25472-0.40918 0.23917-0.532-0.08089zm-2.8384-2.8535c-0.23453-0.25284-0.23453-0.40677 0-0.67692 0.16695-0.19232 0.27583-0.30142 0.24194-0.24245s0.04571 0.23654 0.17688 0.3946c0.35948 0.43315-0.03978 0.93342-0.41882 0.52478zm-12.611-7.1738c-0.24162-0.29113-0.16972-0.35734 0.38806-0.35734 0.47358 0 0.62908-0.09838 0.50444-0.31915-0.13657-0.2419-0.10361-0.24855 0.1362-0.02746 0.174 0.16043 0.73661 0.24383 1.2502 0.18534 3.4866-0.39705 13.446-0.8087 13.885-0.5739 0.27326 0.14624 0.45828 0.29982 0.41115 0.34128-0.08875 0.07806-1.9621 0.20173-9.7878 0.64614-2.5277 0.14354-5.022 0.30631-5.5431 0.36171-0.60643 0.06447-1.0542-0.0279-1.2441-0.25662zm-0.87209-2.1003c0.279-0.33326 0.53912-0.46869 0.59252-0.30849 0.0669 0.2007 0.21405 0.18754 0.49513-0.04424 0.35539-0.29306 0.36486-0.26397 0.08502 0.26114-0.23127 0.43397-0.39998 0.52036-0.6351 0.32522-0.22452-0.18634-0.42695-0.17219-0.67754 0.04734-0.19655 0.17219-0.13356 0.04575 0.13997-0.28098zm-10.341-0.69382c0-0.02961 0.15319-0.18098 0.34043-0.33637 0.25439-0.21113 0.34043-0.19751 0.34043 0.05385 0 0.18501-0.15319 0.33637-0.34043 0.33637-0.18724 0-0.34043-0.02423-0.34043-0.05385zm0.76595-1.7759c0.47637-0.49148 0.92357-0.89361 0.99374-0.89361 0.070212 0-0.2621 0.40213-0.73846 0.89361-0.47637 0.49148-0.92357 0.89361-0.99374 0.89361-0.070164 0 0.2621-0.40213 0.73846-0.89361zm-4.1108-2.375c0.17346-0.32552 0.50541-0.5562 0.74392-0.51701 0.23688 0.038927 0.60304-0.031053 0.81367-0.15551s0.098023 0.086308-0.25026 0.46836-0.67541 0.56812-0.72695 0.41349c-0.064615-0.19384-0.21793-0.17873-0.49366 0.048645-0.3552 0.2929-0.3649 0.26403-0.086723-0.25798zm11.005-0.020738c0-0.12405 0.22978-0.28563 0.51064-0.35907 0.33188-0.08679 0.51064-0.00782 0.51064 0.22554 0 0.19749-0.22978 0.35907-0.51064 0.35907-0.28085 0-0.51064-0.1015-0.51064-0.22554zm-5.0309-2.4619c1.3367-0.51998 5.4465-0.73679 5.6612-0.38943 0.22388 0.36224-0.14868 0.4586-2.4175 0.62516l-2.0198 0.18255z" fill="#949494"/>
  <path d="m30.051 27.599c0.08207-0.21389 0.30928-0.38889 0.50489-0.38889 0.49872 0 0.44262 0.19082-0.14922 0.50756-0.41191 0.22045-0.4774 0.19859-0.35566-0.11867zm0.52262-1.2572c-0.08273-0.21558-0.04847-0.45496 0.07612-0.53196 0.33384-0.20632 0.61691 0.3813 0.32452 0.67369-0.16343 0.16343-0.3024 0.11427-0.40064-0.14173zm-2.0767-3.9651c-0.08079-0.13073-0.01237-0.32082 0.15204-0.42243 0.17817-0.11011 0.23078-0.07449 0.13023 0.08821-0.09278 0.15013-0.02437 0.33115 0.15204 0.40227 0.22957 0.09255 0.2343 0.13504 0.01666 0.14946-0.16724 0.01109-0.37018-0.0868-0.45097-0.21752zm-13.753-8.0348c-0.08273-0.21558-0.04847-0.45496 0.07612-0.53196 0.33384-0.20632 0.61691 0.3813 0.32453 0.67369-0.16343 0.16343-0.30241 0.11427-0.40064-0.14173zm-10.792-1.1174c0.45751-0.53382 0.28633-0.79659-0.24382-0.3743-0.1334 0.10626 0.55413-0.55437 1.5279-1.4681 0.97376-0.9137 2.0653-1.888 2.4255-2.1651 0.61968-0.47657 0.6344-0.47743 0.27212-0.016028-0.347 0.44196-0.34177 0.47235 0.05565 0.32348 0.24124-0.09037 0.51751-0.036679 0.61391 0.1193 0.10614 0.17174 0.059009 0.21176-0.11948 0.10144-0.16212-0.10019-0.29476-0.05372-0.29476 0.10328 0 0.157-0.098196 0.22476-0.2182 0.15059-0.12001-0.074168-0.49341 0.16043-0.82979 0.52134-0.84869 0.9106-3.7879 3.4029-3.189 2.7041zm3.5036-3.3122c0.31758-0.40494 0.30855-0.41398-0.096402-0.096402-0.24574 0.19273-0.44681 0.39379-0.44681 0.4468 0 0.21013 0.20966 0.07488 0.54321-0.35041zm-5.9966-0.12193c0.16609-0.26875 3.7913-2.0953 5.4787-2.7603 0.97038-0.38248 1.3911-0.4391 1.7153-0.23084 0.36697 0.23572 0.34586 0.25826-0.14486 0.15462-0.39814-0.084088-0.57446-0.0015439-0.57446 0.26902 0 0.31802-0.070955 0.33145-0.38298 0.072489-0.21064-0.17482-0.38298-0.20707-0.38298-0.071678s-0.46289 0.38485-1.0287 0.55435c-0.56575 0.16951-0.96191 0.41616-0.88035 0.54813 0.08156 0.13196-0.0082988 0.17984-0.19971 0.1064-0.1914-0.073445-1.1091 0.24949-2.0392 0.71764-0.93016 0.46815-1.6326 0.75625-1.5609 0.64024zm9.9615-0.82251c-0.0949-0.24729-0.01928-0.32289 0.22801-0.22801 0.40384 0.15497 0.50903 0.59798 0.14197 0.59798-0.1254 0-0.29189-0.16649-0.36997-0.36997zm-9.5839-0.63224c-0.23392-0.14457-0.21306-0.27251 0.084745-0.51966 0.28064-0.23291 0.39506-0.24226 0.39506-0.032308 0 0.21644 1.9832 0.13848 0.51064 0.022281 0.70249-0.37596 5.8475-2.0344 5.1191-1.5571-0.32746 0.21455-5.2674 2.2343-5.4381 2.1288z" fill="#707070"/>
  <path d="m30.232 26.533c0-0.25136 0.08604-0.26496 0.34042-0.05385 0.18724 0.15539 0.34043 0.30676 0.34043 0.33637 0 0.02961-0.15319 0.05385-0.34043 0.05385s-0.34042-0.15137-0.34042-0.33637zm-1.617-4.2706c0-0.05302 0.20106-0.25408 0.4468-0.4468 0.40494-0.31758 0.41398-0.30855 0.0964 0.0964-0.33354 0.4253-0.54321 0.56055-0.54321 0.35041zm-25.957-8.4455c0-0.20446 0.097617-0.31142 0.21693-0.23768 0.11931 0.07373 0.15083 0.24102 0.070038 0.37175-0.20646 0.33406-0.28697 0.29644-0.28697-0.13407zm0.52881-0.43365c-0.11287-0.18263-0.070038-0.22546 0.11259-0.11259 0.16212 0.10019 0.29476 0.07371 0.29476-0.05884 0-0.13256 0.31595-0.44238 0.70212-0.6885l0.70212-0.44748-0.74989 0.80109c-0.85654 0.91502-0.81991 0.89755-1.0617 0.50632zm4.4925-2.634c0-0.25903 0.74556-0.62988 0.86801-0.43176 0.081136 0.13128-0.080971 0.29844-0.36025 0.37147-0.27927 0.07303-0.50776 0.10016-0.50776 0.06029zm-0.013741-1.2437c0.48393-0.51362 0.89563-0.93387 0.91489-0.93387s0.035019 0.16729 0.035019 0.37175c0 0.20446-0.095745 0.31258-0.21277 0.24025-0.11702-0.072325-0.21638-0.038541-0.22079 0.075056-0.0044389 0.11361-0.32037 0.42573-0.70212 0.69362-0.58522 0.41066-0.55608 0.34057 0.18577-0.4468z" fill="#4f4f4f"/>
  <path d="m13.359 27.801c-0.39421-0.68884-0.45986-11.452-0.07131-11.693 0.44967-0.27791 0.53554 0.95356 0.4626 6.6337-0.05966 4.6462-0.1273 5.5206-0.39128 5.0593zm17.265-0.16882c0.29063-0.35036 0.29183-0.42243 7e-3 -0.42243-0.19132 0-0.09144-0.17648 0.22552-0.39848 0.78233-0.54796 1.332-1.6968 1.332-2.7841 0-0.75002-0.1459-1.0014-0.82979-1.4291-0.58222-0.36422-1.0964-0.48098-1.7234-0.39137l-0.89361 0.12772 0.6324-0.5225c0.78354-0.64737 2.0955-0.50384 2.9787 0.32586 1.2646 1.188 0.48887 4.5892-1.2519 5.4891-0.7629 0.39442-0.80001 0.39482-0.47686 0.0053zm-2.2653-0.42355c-2.7018-0.36459-5.1245-1.6282-7.4374-3.8793-2.0756-2.0201-6.0944-6.9062-6.0944-7.4094 0-0.48481 0.01545-0.48555 0.61149-0.02928 0.33631 0.25746 1.4664 1.5022 2.5113 2.7659 4.3069 5.2093 7.8604 7.6595 11.108 7.6595 1.536 0 1.5942 0.02178 1.1101 0.41512-0.28101 0.22831-0.43922 0.48682-0.35158 0.57446 0.08765 0.08765 0.11148 0.14429 0.05298 0.12588-0.05851-0.01841-0.7383-0.11875-1.5107-0.22296zm1.3405-2.587c-0.37593-0.3799-0.43309-2.263-0.0687-2.263 0.32423 0 0.57859 1.0249 0.4716 1.9001-0.06726 0.55025-0.14666 0.62173-0.40291 0.36276zm-22.531-9.9036c-1.8302-0.33903-2.1819-0.48363-2.2447-0.92282-0.10213-0.71344 0.87858-2.096 2.2037-3.1068 1.187-0.90536 2.0218-1.1731 1.0268-0.32942-0.44504 0.37739-0.48131 0.46872-0.13864 0.34901 0.25527-0.089165-0.20431 0.50838-1.0212 1.3279l-1.4854 1.49 1.7872 0.35321c0.98293 0.19427 1.8863 0.44814 2.0074 0.56417 0.57821 0.55389-0.13356 0.64546-2.1351 0.27467zm3.6043 0.07524c-1.8279-1.2802-1.63-4.8796 0.32373-5.8897 0.73864-0.38186 0.77037-0.38106 0.44494 0.011252-0.297 0.35805-0.297 0.4233 0 0.4281 0.22473 0.00367 0.1551 0.16388-0.19417 0.44681-1.3279 1.0757-1.3931 2.7741-0.15409 4.0133 0.63097 0.63097 0.82843 0.6834 2.2003 0.58417 1.4922-0.10794 1.5014-0.10443 0.9319 0.3567-0.73588 0.59588-2.7326 0.62363-3.5526 0.04937zm5.0765 0.02101c0-0.23636 0.19751-0.98582 0.43893-1.6656 0.37797-1.0642 0.39456-1.4017 0.11946-2.4303-0.37873-1.416-0.19923-1.7437 0.47467-0.86665 0.53472 0.69593 0.64466 2.172 0.26136 3.5085-0.22579 0.78728-0.20376 0.82798 0.4468 0.82578 0.37636-0.0013 2.1559-0.17558 3.9545-0.38733 2.1295-0.25072 3.4209-0.30043 3.7021-0.14251 0.63163 0.35463 0.27234 0.42871-4.4191 0.91117-2.2468 0.23106-4.2862 0.47783-4.5319 0.54839-0.29938 0.08596-0.4468-0.01352-0.4468-0.30146zm16.455 0.16103c-0.1334-0.12886-1.6213-0.68876-3.3064-1.2442-1.685-0.55546-4.8447-1.8152-7.0212-2.7996-4.1395-1.872-5.8997-2.4736-8.0629-2.7558-1.3867-0.18092-3.8069 0.20905-5.086 0.81951l-0.76595 0.36556 0.74282-0.62823c1.7195-1.4542 5.528-1.7041 8.8709-0.58193 1.0636 0.35703 3.5356 1.3904 5.4932 2.2966 1.9577 0.90612 4.3574 1.8885 5.3326 2.1832 2.6995 0.81569 4.1986 1.5698 4.1986 2.1122 0 0.53037-0.05445 0.56238-0.39574 0.2327zm-30.732-0.88779c0.058507-0.05546 0.56595-0.28594 1.1277-0.51219l1.0212-0.41137-0.6383 0.50652c-0.35106 0.27858-0.8585 0.50906-1.1277 0.51219-0.26915 0.0031-0.44149-0.0397-0.38298-0.09515zm30.901-3.4196c-0.18085-0.33792-0.80719-0.53798-2.4097-0.76968-1.1909-0.17219-4.3073-0.99721-6.9253-1.8334-6.0077-1.9188-7.9906-2.3249-11.356-2.3263-2.8468-0.0010615-5.553 0.53333-7.8532 1.5508-1.5508 0.68598-1.696 0.4809-0.2566-0.36259 1.8231-1.0684 5.6825-1.93 8.6454-1.93 3.1064 0 5.1429 0.40757 10.346 2.0706 4.4736 1.4299 7.8787 2.2559 9.3343 2.2643 0.92296 0.00531 0.95744 0.037711 0.95744 0.89914 0 0.99953-0.12161 1.1099-0.48172 0.437zm-31.178-0.43588c0-0.17054 3.6056-1.97 3.7193-1.8562 0.050874 0.050883-0.76515 0.51688-1.8134 1.0355-1.0483 0.51869-1.9059 0.888-1.9059 0.82071zm0.51064-1.0172c0-0.1527 1.9487-1.157 2.2239-1.1461 0.24825 0.0098139-1.7654 1.2655-2.0323 1.2673-0.10532 7.189e-4 -0.19149-0.053807-0.19149-0.12116zm3.0638-1.5371c0.35106-0.20069 0.75319-0.36488 0.89361-0.36488s-0.031912 0.1642-0.38298 0.36488c-0.35106 0.20069-0.75319 0.36488-0.89361 0.36488s0.031912-0.1642 0.38298-0.36488z" fill="#010101"/>
 </g>
</svg>
