<?xml version="1.0" encoding="UTF-8"?>
<svg width="128" height="128" version="1.1" viewBox="0 0 33.867 33.867" xml:space="preserve" xmlns="http://www.w3.org/2000/svg"><path d="m0.52917 9.7025c4.2321-2.1576 7.9588-4.2205 12.932-4.0046 6.8757 0.29842 12.924 4.5307 19.844 4.6735v-0.89187c-8.8455-0.3798-16.041-6.2942-25.195-4.3117-2.4296 0.52616-7.1331 1.635-7.5809 4.5347m0.44593 4.4594v0.22296c2.6432 2.87e-4 5.2199 0.50982 7.8039 1.0257 0.78122 0.15598 2.1711 0.11852 2.764 0.70056 1.1858 1.1639-0.43036 3.078-0.53075 4.2938-0.19551 2.368 1.5501 5.2319 1.5572 7.8039h0.89187v-12.04c4.1818 3.0779 6.3709 8.0825 11.148 10.63 1.8239 0.9727 4.9599 1.9503 6.9111 0.77265 1.6312-0.98452 2.7856-4.2092 0.65995-5.343-2.9226-1.5588-5.4815 2.546-1.7739 2.6357-0.34024-0.98819-0.62673-3.1224 1.2869-1.6492 1.3464 1.0365 0.39815 2.9851-0.84197 3.616-1.1633 0.59179-2.8526 0.21288-4.0124-0.20318-5.0694-1.8186-8.5771-6.8856-11.817-10.905l18.06-1.1148c-1.6712-1.2501-4.2994-1.6283-6.2431-2.4081-4.9207-1.974-11.187-6.2281-16.723-4.4237-3.7864 1.2342-5.4627 5.1864-9.1417 6.3859m11.594-5.7211c4.2232-0.42362 4.757 5.935 0.44593 6.3453-4.108 0.39093-4.6102-5.9276-0.44593-6.3453m13.378 4.8292v0.22297l-9.8106 1.1148c1.0604-2.0158 1.2753-3.1976 0.44594-5.3512 3.2038 0.47315 6.597 2.3981 9.3646 4.0134m-17.168-3.5675c-0.36023 1.9404 0.01584 3.1073 0.6689 4.9053l-4.6823-0.89187c0.57941-1.7044 2.3755-3.3199 4.0134-4.0134z" fill="#0b0b0b"/></svg>
