<?xml version="1.0" encoding="UTF-8"?>
<!-- Uploaded to: SVG Repo, www.svgrepo.com, Generator: SVG Repo Mixer Tools -->
<svg width="128" height="128" fill="#000000" version="1.1" viewBox="0 0 73.56 73.56" xml:space="preserve" xmlns="http://www.w3.org/2000/svg">
<g transform="matrix(.16 0 0 .18934 0 -6.7443)">
	<path d="m447.65 304.13h-40.138c-6.681 0-12.097 5.416-12.097 12.097v95.805c0 6.681 5.416 12.098 12.097 12.098h40.138c6.681 0 12.098-5.416 12.098-12.098v-95.805c0-6.681-5.416-12.097-12.098-12.097z"/>
	<path d="m348.8 258.13h-40.138c-6.681 0-12.098 5.416-12.098 12.097v141.8c0 6.681 5.416 12.098 12.098 12.098h40.138c6.681 0 12.097-5.416 12.097-12.098v-141.8c1e-3 -6.682-5.415-12.098-12.097-12.098z"/>
	<path d="m151.09 304.13h-40.138c-6.681 0-12.097 5.416-12.097 12.097v95.805c0 6.681 5.416 12.098 12.097 12.098h40.138c6.681 0 12.098-5.416 12.098-12.098v-95.805c0-6.681-5.417-12.097-12.098-12.097z"/>
	<path d="m52.236 258.13h-40.138c-6.682 0-12.098 5.416-12.098 12.098v141.8c0 6.681 5.416 12.098 12.098 12.098h40.138c6.681 0 12.097-5.416 12.097-12.098v-141.8c0-6.682-5.416-12.098-12.097-12.098z"/>
	<path d="m249.94 196.97h-40.138c-6.681 0-12.098 5.416-12.098 12.098v202.97c0 6.681 5.416 12.098 12.098 12.098h40.138c6.681 0 12.098-5.416 12.098-12.098v-202.97c0-6.682-5.417-12.098-12.098-12.098z"/>
	<path d="m436.87 244.62c8.14 0 15-6.633 15-15v-48.479c0-8.284-6.716-15-15-15s-15 6.716-15 15v12.119l-152.35-153.22c-3.148-3.165-7.536-4.767-11.989-4.362-4.446 0.403-8.482 2.765-11.011 6.445l-114.78 167.06-100.8-64.216c-6.987-4.451-16.26-2.396-20.71 4.592-4.451 6.987-2.396 16.259 4.592 20.71l113.02 72c2.495 1.589 5.286 2.351 8.046 2.351 4.783 0 9.475-2.285 12.376-6.507l112.74-164.09 139.8 140.6h-12.41c-8.284 0-15 6.716-15 15s6.716 15 15 15h48.443z"/>
</g>
</svg>
