<?xml version="1.0" encoding="UTF-8" standalone="no"?>
<svg
   width="128"
   height="128"
   version="1.1"
   viewBox="0 0 128 128"
   id="svg16"
   sodipodi:docname="moon.svg"
   inkscape:version="1.4 (86a8ad7, 2024-10-11)"
   xmlns:inkscape="http://www.inkscape.org/namespaces/inkscape"
   xmlns:sodipodi="http://sodipodi.sourceforge.net/DTD/sodipodi-0.dtd"
   xmlns="http://www.w3.org/2000/svg"
   xmlns:svg="http://www.w3.org/2000/svg">
  <defs
     id="defs16" />
  <sodipodi:namedview
     id="namedview16"
     pagecolor="#ffffff"
     bordercolor="#000000"
     borderopacity="0.25"
     inkscape:showpageshadow="2"
     inkscape:pageopacity="0.0"
     inkscape:pagecheckerboard="0"
     inkscape:deskcolor="#d1d1d1"
     inkscape:zoom="6.3046875"
     inkscape:cx="64"
     inkscape:cy="64"
     inkscape:window-width="1920"
     inkscape:window-height="1009"
     inkscape:window-x="1912"
     inkscape:window-y="-8"
     inkscape:window-maximized="1"
     inkscape:current-layer="svg16" />
  <path
     d="m4.2413 64.002a59.762 59.762 0 1 0 119.52 0 59.762 59.762 0 1 0-119.52 0z"
     fill="#555"
     stroke-width="2.241"
     id="path1" />
  <path
     d="m64.002 4.2411a59.761 59.761 0 1 0 59.761 59.761 59.761 59.761 0 0 0-59.761-59.761zm0 110.56a54.532 54.532 0 1 1 54.532-54.532 54.532 54.532 0 0 1-54.532 54.532z"
     fill="#222"
     stroke-width="2.241"
     id="path2" />
  <path
     d="m4.2413 64.002a59.762 59.762 0 1 0 119.52 0 59.762 59.762 0 1 0-119.52 0z"
     fill="none"
     stroke="#000"
     stroke-linecap="round"
     stroke-linejoin="round"
     stroke-width="4.4821"
     id="path3" />
  <g
     fill="#222"
     id="g11">
    <path
       d="m107.33 84.171c0 2.4801-3.3466 4.4821-7.4702 4.4821-4.1236 0-7.4702-2.002-7.4702-4.4821s3.3466-4.4821 7.4702-4.4821c4.1236 0 7.4702 2.002 7.4702 4.4821z"
       stroke-width="2.241"
       id="path4" />
    <path
       d="m20.676 84.171c0 2.4801 3.3466 4.4821 7.4702 4.4821s7.4702-2.002 7.4702-4.4821-3.3466-4.4821-7.4702-4.4821c-4.1235 0-7.4702 2.002-7.4702 4.4821z"
       stroke-width="2.241"
       id="path5" />
    <path
       d="m41.187 104.01c0 3.5229 3.3466 6.3668 7.4702 6.3668s7.4702-2.8438 7.4702-6.3668-3.3466-6.3668-7.4702-6.3668c-4.1235 0-7.4702 2.8438-7.4702 6.3668z"
       stroke-width="2.671"
       id="path6" />
    <path
       d="m102.06 59.715c0 3.5229 2.9948 6.3668 6.6849 6.3668s6.6849-2.8438 6.6849-6.3668-2.9948-6.3668-6.6849-6.3668c-3.69 0-6.6849 2.8438-6.6849 6.3668z"
       stroke-width="2.5267"
       id="path7" />
    <path
       d="m36.233 19.161c0 4.8265 4.1029 8.7226 9.1584 8.7226s9.1584-3.8961 9.1584-8.7226-4.1029-8.7226-9.1584-8.7226c-5.0554 0-9.1584 3.8961-9.1584 8.7226z"
       stroke-width="3.4616"
       id="path8" />
    <path
       d="m78.35 20.251c0 3.8705 3.2903 6.995 7.3445 6.995s7.3445-3.1244 7.3445-6.995c0-3.8705-3.2903-6.995-7.3445-6.995-4.0541 0-7.3445 3.1245-7.3445 6.995z"
       stroke-width="2.776"
       id="path9" />
    <path
       d="m13.133 66.764c0 3.5229 2.9948 6.3668 6.6849 6.3668s6.6849-2.8438 6.6849-6.3668-2.9948-6.3668-6.6849-6.3668c-3.69 0-6.6849 2.8438-6.6849 6.3668z"
       stroke-width="2.5267"
       id="path10" />
    <path
       d="m64.003 68.291c3.5373 0.18659 6.8291 0.77777 8.3449-2.7616 0.37414 1.022 0.5554 2.1178 0.53265 3.22-0.28928 13.084-18.045 12.612-17.755-0.47122 0.03904-1.0982 0.26806-2.1778 0.6747-3.1808 1.3845 3.6471 4.6262 3.2307 8.2029 3.1935z"
       stroke-width="2.8007"
       id="path11" />
  </g>
  <g
     id="g16"
     style="fill:#ccccff;fill-opacity:1">
    <path
       d="m 38.408,55.497 a 6.883,9.9103 0 1 0 13.766,0 6.883,9.9103 0 1 0 -13.766,0"
       stroke-width="2.7527"
       id="path12"
       style="fill:#ccccff;fill-opacity:1" />
    <path
       d="m 75.829,55.497 a 6.883,9.9103 0 1 0 13.766,0 6.883,9.9103 0 1 0 -13.766,0"
       stroke-width="2.7527"
       id="path13"
       style="fill:#ccccff;fill-opacity:1" />
  </g>
  <g
     id="g17"
     style="stroke:#ccccff;stroke-opacity:1;fill:none">
    <path
       d="m 81.615,88.976 c -4.8976,3.6355 -11.044,5.8543 -17.612,5.8543 -6.6576,0 -12.679,-2.1295 -17.61,-5.8559"
       id="path14"
       style="fill:none;fill-opacity:1;stroke:#ccccff;stroke-width:4.5886;stroke-linecap:round;stroke-linejoin:round;stroke-miterlimit:10;stroke-opacity:1" />
    <path
       d="m 54.307,35.342 c 0,0 -10.954,-5.9658 -21.909,3.7908"
       id="path15"
       style="fill:none;fill-opacity:1;stroke:#ccccff;stroke-width:4.5886;stroke-linecap:round;stroke-linejoin:round;stroke-miterlimit:10;stroke-opacity:1" />
    <path
       d="m 73.696,35.342 c 0,0 10.954,-5.9658 21.909,3.7908"
       id="path16"
       style="fill:none;fill-opacity:1;stroke:#ccccff;stroke-width:4.5886;stroke-linecap:round;stroke-linejoin:round;stroke-miterlimit:10;stroke-opacity:1" />
  </g>
</svg>
